<svg width="63" height="65" viewBox="0 0 63 65" fill="none" xmlns="http://www.w3.org/2000/svg">
<path d="M49.3079 43.0028C46.3818 47.9702 41.3283 51.9318 35.7455 53.9043C30.1641 55.8763 24.1689 55.8248 19.297 52.955C14.4251 50.0852 11.4736 44.8665 10.4926 39.0289C9.51124 33.1897 10.5262 26.8493 13.4523 21.8818C16.3784 16.9144 21.4319 12.9529 27.0147 10.9804C32.5961 9.00835 38.5913 9.05982 43.4632 11.9296C48.3351 14.7995 51.2866 20.0181 52.2676 25.8558C53.2489 31.6949 52.234 38.0353 49.3079 43.0028Z" stroke="#331B3B" stroke-opacity="0.64" stroke-width="2"/>
<path fill-rule="evenodd" clip-rule="evenodd" d="M33.2014 42.4425V33.4425H35.9337L36.3801 29.4425H33.2014V27.4943C33.2014 26.4643 33.2277 25.4425 34.667 25.4425H36.1248V22.5826C36.1248 22.5396 34.8726 22.4425 33.6057 22.4425C30.9601 22.4425 29.3035 24.0997 29.3035 27.1427V29.4425H26.3801V33.4425H29.3035V42.4425H33.2014Z" fill="#331B3B"/>
</svg>
