<svg width="63" height="65" viewBox="0 0 63 65" fill="none" xmlns="http://www.w3.org/2000/svg">
<path fill-rule="evenodd" clip-rule="evenodd" d="M40.8295 41.4425H37.131V35.1432C37.131 33.4162 36.4748 32.451 35.1078 32.451C33.6207 32.451 32.8437 33.4554 32.8437 35.1432V41.4425H29.2795V29.4425H32.8437V31.0589C32.8437 31.0589 33.9154 29.0759 36.4619 29.0759C39.0072 29.0759 40.8295 30.6302 40.8295 33.8448V41.4425ZM25.0273 27.8712C23.8133 27.8712 22.8295 26.8797 22.8295 25.6569C22.8295 24.434 23.8133 23.4425 25.0273 23.4425C26.2414 23.4425 27.2246 24.434 27.2246 25.6569C27.2246 26.8797 26.2414 27.8712 25.0273 27.8712ZM23.1869 41.4425H26.9035V29.4425H23.1869V41.4425Z" fill="#331B3B"/>
<path d="M49.3076 43.0028C46.3815 47.9702 41.328 51.9318 35.7452 53.9043C30.1638 55.8763 24.1686 55.8248 19.2967 52.955C14.4248 50.0852 11.4733 44.8665 10.4922 39.0289C9.51094 33.1897 10.5259 26.8493 13.452 21.8818C16.3781 16.9144 21.4316 12.9529 27.0144 10.9804C32.5958 9.00835 38.591 9.05982 43.4629 11.9296C48.3348 14.7995 51.2863 20.0181 52.2673 25.8558C53.2486 31.6949 52.2337 38.0353 49.3076 43.0028Z" stroke="#331B3B" stroke-opacity="0.64" stroke-width="2"/>
</svg>
